<?xml version="1.0" encoding="UTF-8"?>
<!DOCTYPE svg PUBLIC "-//W3C//DTD SVG 1.1//EN" "http://www.w3.org/Graphics/SVG/1.1/DTD/svg11.dtd">
<!-- Creator: CorelDRAW X7 -->
<svg xmlns="http://www.w3.org/2000/svg" xml:space="preserve" width="1670px" height="230px" version="1.1" style="shape-rendering:geometricPrecision; text-rendering:geometricPrecision; image-rendering:optimizeQuality; fill-rule:evenodd; clip-rule:evenodd"
viewBox="0 0 1670000 229999"
 xmlns:xlink="http://www.w3.org/1999/xlink">
 <defs>
  <style type="text/css">
   <![CDATA[
    .fil3 {fill:none}
    .fil0 {fill:black}
    .fil2 {fill:#13AAFF}
    .fil1 {fill:#13AAFF;fill-rule:nonzero}
   ]]>
  </style>
   <clipPath id="id0">
    <path d="M1670001 0l-1670002 0 0 229999 1670002 0 0 -229999z"/>
   </clipPath>
 </defs>
 <g id="Layer_x0020_1">
  <metadata id="CorelCorpID_0Corel-Layer"/>
  <g>
  </g>
  <g style="clip-path:url(#id0)">
   <g>
    <g id="_2102933112">
     <path class="fil0" d="M258051 167925l35433 0c33295,0 56815,-21840 56815,-52539 0,-30699 -23520,-52386 -56815,-52386l-35433 0 0 104925zm11913 -10844l0 -83237 23520 0c26269,0 44750,17258 44750,41542 0,24437 -18481,41695 -44750,41695l-23520 0z"/>
     <path class="fil0" d="M397781 161431c-14024,0 -23787,-10175 -25300,-24063l58164 0c0,-24888 -12238,-41113 -33688,-41113 -19113,0 -35063,15813 -35063,36988 0,21863 17050,37400 36026,37400 9900,0 22412,-4262 28600,-10999l-6326 -6738c-4400,4813 -14024,8525 -22413,8525zm-412 -55963c14163,0 21725,9900 23100,22688l-47850 0c1925,-13751 12099,-22688 24750,-22688z"/>
     <polygon class="fil0" points="470286,168993 480186,168993 510024,97905 498474,97905 475236,156893 451585,97905 440035,97905 "/>
     <path class="fil0" d="M552378 161431c-14024,0 -23787,-10175 -25300,-24063l58163 0c0,-24888 -12237,-41113 -33687,-41113 -19113,0 -35063,15813 -35063,36988 0,21863 17050,37400 36026,37400 9900,0 22412,-4262 28600,-10999l-6326 -6738c-4400,4813 -14024,8525 -22413,8525zm-412 -55963c14163,0 21725,9900 23100,22688l-47850 0c1925,-13751 12099,-22688 24750,-22688z"/>
     <polygon class="fil0" points="606521,167925 617301,167925 617301,55000 606521,55000 "/>
     <path class="fil0" d="M672839 170643c19938,0 36714,-17050 36714,-37262 0,-20214 -16776,-37126 -36714,-37126 -19938,0 -36850,16912 -36850,37126 0,20212 16912,37262 36850,37262zm0 -9212c-14162,0 -25988,-12788 -25988,-28050 0,-15125 11826,-27913 25988,-27913 14026,0 25851,12788 25851,27913 0,15262 -11825,28050 -25851,28050z"/>
     <path class="fil0" d="M765907 96255c-12240,0 -21972,5638 -27723,14987l0 -13337 -11059 0 0 112746 11059 0 0 -54996c5751,9351 15483,14988 27723,14988 20052,0 35093,-15400 35093,-37262 0,-21725 -15041,-37126 -35093,-37126zm-2065 65176c-15041,0 -25658,-11688 -25658,-28050 0,-16363 10617,-27913 25658,-27913 14893,0 25508,11550 25508,27913 0,16362 -10615,28050 -25508,28050z"/>
     <path class="fil0" d="M851636 161431c-14025,0 -23788,-10175 -25301,-24063l58164 0c0,-24888 -12238,-41113 -33688,-41113 -19112,0 -35063,15813 -35063,36988 0,21863 17050,37400 36026,37400 9900,0 22413,-4262 28600,-10999l-6326 -6738c-4399,4813 -14024,8525 -22412,8525zm-412 -55963c14162,0 21725,9900 23100,22688l-47850 0c1925,-13751 12099,-22688 24750,-22688z"/>
     <path class="fil0" d="M912904 111793l0 -13888 -10312 0 0 71088 10312 0 0 -39738c0,-13887 11413,-23787 27501,-23787l0 -9213c-13063,0 -23238,6050 -27501,15538z"/>
     <path class="fil0" d="M1469261 169648c4740,0 8662,-4086 8662,-8988 0,-4576 -3922,-8661 -8662,-8661 -5066,0 -8988,4085 -8988,8661 0,4902 3922,8988 8988,8988z"/>
     <path class="fil0" d="M1534036 169649c9801,0 18787,-4084 25456,-10754l-7078 -6944c-4765,5311 -11300,8577 -18378,8577 -14022,0 -25729,-12660 -25729,-27771 0,-14975 11707,-27635 25729,-27635 6943,0 13341,3131 17969,8168l7079 -6942c-6670,-6398 -15519,-10347 -25048,-10347 -19740,0 -36484,16745 -36484,36756 0,20012 16744,36892 36484,36892z"/>
     <path class="fil0" d="M1606168 169649c19739,0 36348,-16880 36348,-36892 0,-20011 -16609,-36756 -36348,-36756 -19739,0 -36484,16745 -36484,36756 0,20012 16745,36892 36484,36892zm0 -9121c-14022,0 -25729,-12660 -25729,-27771 0,-14975 11707,-27635 25729,-27635 13885,0 25594,12660 25594,27635 0,15111 -11709,27771 -25594,27771z"/>
    </g>
    <g id="_2102931720">
     <path class="fil1" d="M197999 23999l28000 0c2209,0 4001,1792 4001,4000l0 174000c0,2209 -1792,4001 -4001,4001l-28000 0c-2209,0 -4000,-1792 -4000,-4001l0 -174000c0,-2208 1791,-4000 4000,-4000zm24000 8001l-20000 0 0 165999 20000 0 0 -165999z"/>
     <path class="fil1" d="M155062 72999l-55128 0 -21464 42000 21464 42000 55128 0 21465 -42000 -21465 -42000zm-57557 -8001l59987 0 0 17c1448,1 2843,794 3547,2171l23487 45961 14 28 6 11c561,1100 605,2444 0,3626l-23335 45663c-587,1479 -2031,2525 -3719,2525l-59987 0 0 -16c-1448,-2 -2843,-794 -3547,-2171l-23487 -45962 -15 -27 -6 -12c-561,-1099 -604,-2443 0,-3626l23336 -45662c587,-1479 2031,-2526 3719,-2526z"/>
     <path class="fil1" d="M28998 23999l28001 0c2209,0 4000,1792 4000,4000l0 174000c0,2209 -1791,4001 -4000,4001l-28001 0c-2208,0 -4000,-1792 -4000,-4001l0 -174000c0,-2208 1792,-4000 4000,-4000zm24000 8001l-19999 0 0 165999 19999 0 0 -165999z"/>
    </g>
    <g id="_2102930472">
     <path class="fil2" d="M1362614 108439l-12333 0 3728 -14200 12334 0 4204 -16017 15555 0 -4204 16017 19340 0 -3729 14200 -19340 0 -10948 41719c-870,3309 -113,7391 3994,7391 2669,0 5718,-983 7769,-2723l2099 -1780 5111 12458 -1396 902c-5005,3232 -11026,5344 -17022,5344 -13317,0 -19048,-10399 -15845,-22607l10683 -40704z"/>
     <path class="fil2" d="M1288968 106367c6838,-5664 15934,-9302 24540,-9302 18582,0 26789,14079 22278,31271l-10916 41587 -14758 0 10789 -41106c2476,-9431 -438,-18279 -11377,-18279 -10461,0 -23555,7248 -26324,17798l-10915 41587 -14757 0 26493 -100937 3681 -14022 14756 0 -13490 51403z"/>
     <path class="fil2" d="M1227527 159855c-8091,6825 -18086,10954 -28911,10954 -23710,0 -34089,-18075 -28343,-39966 5735,-21851 24988,-38798 47968,-38798 10042,0 18906,3676 24011,11710l2594 -9883 15556 0 -19125 72856c-5819,22167 -27276,36058 -49684,36058 -10477,0 -23227,-3142 -30543,-11159l-1169 -1279 10060 -12239 1538 1947c4867,6160 13737,8528 21269,8528 15626,0 29106,-7116 33241,-22872l1538 -5857zm-24101 -3248c15233,0 27922,-11308 31715,-25764 3622,-13796 -2507,-24598 -17446,-24598 -15079,0 -27769,11307 -31523,25613 -3602,13715 2268,24749 17254,24749z"/>
     <polygon class="fil2" points="1134546,169923 1153424,97999 1166950,97999 1148072,169923 "/>
     <path class="fil2" d="M1167345 76885c-5614,0 -8945,-4802 -7550,-10121 1290,-4912 6408,-8953 11506,-8953 5435,0 8790,4819 7439,9969 -1284,4889 -6273,9105 -11395,9105z"/>
     <path class="fil2" d="M1090839 171750c-10022,0 -20417,-3718 -27489,-10953l-1211 -1238 9630 -9911 1271 1145c5704,5141 12432,8338 20180,8338 6443,0 14745,-2632 16583,-9634 348,-1323 426,-2696 -208,-3948 -1767,-3491 -9377,-5543 -12852,-6623 -11171,-3469 -23035,-8109 -19379,-22037 3705,-14113 17624,-21890 31607,-21890 8643,0 17276,2859 24073,8229l1472 1164 -9266 10492 -1315 -1001c-5037,-3836 -10954,-6267 -17343,-6267 -6026,0 -13612,2440 -15322,8958 -245,927 -392,1988 -37,2908 1236,3206 10894,6118 13836,7139 11213,3897 22375,8325 18602,22696 -3797,14462 -18588,22433 -32832,22433z"/>
     <path class="fil2" d="M1018972 101034c6645,-5502 15481,-9035 23841,-9035 18051,0 26024,13676 21641,30377l-12481 47547 -14337 0 12358 -47080c2406,-9161 -425,-17757 -11054,-17757 -10161,0 -22879,7042 -25570,17290l-12480 47547 -14337 0 20013 -76240 14336 0 -1930 7351z"/>
     <polygon class="fil2" points="949415,169923 977924,61313 993936,61313 965427,169923 "/>
     <path class="fil2" d="M1419431 171750c-10021,0 -20416,-3718 -27489,-10953l-1210 -1238 9629 -9911 1271 1145c5705,5141 12432,8338 20180,8338 6443,0 14745,-2632 16583,-9634 348,-1323 426,-2696 -208,-3948 -1767,-3491 -9377,-5543 -12851,-6623 -11171,-3469 -23035,-8109 -19380,-22037 3705,-14113 17624,-21890 31608,-21890 8643,0 17276,2859 24073,8229l1471 1164 -9265 10492 -1316 -1001c-5036,-3836 -10954,-6267 -17342,-6267 -6026,0 -13612,2440 -15323,8958 -244,927 -392,1988 -36,2908 1235,3206 10893,6118 13835,7139 11214,3897 22375,8325 18603,22696 -3798,14462 -18589,22433 -32833,22433z"/>
    </g>
   </g>
  </g>
  <polygon class="fil3" points="1670001,0 -1,0 -1,229999 1670001,229999 "/>
 </g>
</svg>
