<?xml version="1.0" encoding="UTF-8"?>
<svg width="217px" height="28px" viewBox="0 0 217 28" version="1.1" xmlns="http://www.w3.org/2000/svg" xmlns:xlink="http://www.w3.org/1999/xlink">
    <!-- Generator: Sketch 61.1 (89650) - https://sketch.com -->
    <title>logo</title>
    <desc>Created with Sketch.</desc>
    <g id="Page-1" stroke="none" stroke-width="1" fill="none" fill-rule="evenodd">
        <g id="Desktop---results-page" transform="translate(-266.000000, -27.000000)">
            <g id="Header-nav" transform="translate(0.000000, -1.000000)">
                <g id="Header" transform="translate(266.000000, 24.000000)">
                    <g id="logo" transform="translate(0.000000, 4.000000)">
                        <path d="M65.0507835,18.43184 L64.8997784,18.2784 C64.5261804,17.89872 63.9378196,17.85952 63.5172423,18.18544 C63.147,18.47216 62.7756392,18.71744 62.3998041,18.91792 C61.7879536,19.24496 61.0541804,19.40736 60.2007216,19.40736 C59.5351804,19.40736 58.9188557,19.27744 58.3517474,19.01648 C57.7857577,18.75664 57.2958299,18.40048 56.8830825,17.94576 C56.4703351,17.49216 56.1504278,16.9624 55.9233608,16.35424 C55.6974124,15.74832 55.5833196,15.0976 55.5833196,14.4032 C55.5833196,13.70992 55.6974124,13.06368 55.9233608,12.46224 C56.1504278,11.86192 56.4703351,11.33776 56.8830825,10.89088 C57.2958299,10.444 57.7857577,10.0912 58.3517474,9.83024 C58.9188557,9.5704 59.5351804,9.44048 60.2007216,9.44048 C61.0004897,9.44048 61.7130103,9.60064 62.3394021,9.91984 C62.6973402,10.10352 63.0429742,10.31968 63.3785412,10.56608 C63.818134,10.89088 64.428866,10.82256 64.7868041,10.4104 L65.0082784,10.15504 C65.2051443,9.9288 65.2901546,9.66 65.2588351,9.36096 C65.2275155,9.06192 65.089933,8.81664 64.8505619,8.6352 C64.7812113,8.58256 64.7107423,8.53104 64.6391546,8.47952 C64.2655567,8.21296 63.8595206,7.98224 63.4199278,7.7896 C62.9792165,7.59584 62.496,7.44576 61.9702784,7.33824 C61.4434381,7.23184 60.8606701,7.1792 60.2208557,7.1792 C59.1548711,7.1792 58.1828454,7.36848 57.3025412,7.74816 C56.4233557,8.12896 55.6638557,8.64976 55.0240412,9.30944 C54.3842268,9.97024 53.8887062,10.7408 53.5352423,11.62112 C53.1817784,12.50256 53.0050464,13.44224 53.0050464,14.44352 C53.0050464,15.45824 53.185134,16.40576 53.5453093,17.28608 C53.904366,18.1664 54.4010052,18.93024 55.0341082,19.5776 C55.6672113,20.22496 56.4166443,20.73568 57.2824072,21.10864 C58.1481701,21.48272 59.0955876,21.66864 60.1224227,21.66864 C60.7745412,21.66864 61.370732,21.61152 61.9098763,21.4984 C62.4501392,21.38528 62.9467784,21.2184 63.3997938,20.99888 C63.8528093,20.77936 64.2756237,20.5184 64.6682371,20.21824 C64.7733814,20.13648 64.8785258,20.0536 64.981433,19.96736 C65.2118557,19.77248 65.3382526,19.51824 65.3527938,19.21472 C65.3662165,18.91344 65.2633093,18.64688 65.0507835,18.43184" id="Fill-1" fill="#333333"></path>
                        <path d="M82.4443402,18.43184 L82.2922165,18.27728 C81.9186186,17.89872 81.3302577,17.85952 80.9096804,18.18544 C80.5394381,18.47216 80.1669588,18.71744 79.7922423,18.91792 C79.1792732,19.24384 78.4455,19.40736 77.5931598,19.40736 C76.9276186,19.40736 76.3112938,19.27744 75.7441856,19.01648 C75.1781959,18.75664 74.6893866,18.40048 74.2755206,17.94576 C73.8627732,17.49216 73.542866,16.9624 73.315799,16.35424 C73.0898505,15.74832 72.9757577,15.0976 72.9757577,14.4032 C72.9757577,13.70992 73.0898505,13.06368 73.315799,12.46224 C73.542866,11.86192 73.8627732,11.33776 74.2755206,10.89088 C74.6893866,10.444 75.1781959,10.0912 75.7441856,9.83024 C76.3112938,9.5704 76.9276186,9.44048 77.5931598,9.44048 C78.3929278,9.44048 79.106567,9.60064 79.7329588,9.91984 C80.0573402,10.08672 80.3738918,10.27936 80.6803763,10.5 C81.1792526,10.85728 81.8615722,10.77664 82.263134,10.31296 L82.3022835,10.26928 C82.5271134,10.00944 82.6233093,9.70032 82.5841598,9.3576 C82.5450103,9.016 82.381701,8.73488 82.104299,8.53328 C82.0796907,8.51536 82.0550825,8.49744 82.0304742,8.47952 C81.6579948,8.21296 81.2508402,7.98224 80.812366,7.7896 C80.3727732,7.59584 79.8884381,7.44576 79.3627165,7.33824 C78.8358763,7.23184 78.2531082,7.1792 77.6132938,7.1792 C76.5473093,7.1792 75.5741649,7.36848 74.6949794,7.74816 C73.8157938,8.12896 73.0551753,8.64976 72.4164794,9.30944 C71.7766649,9.97024 71.2800258,10.7408 70.9276804,11.62112 C70.5742165,12.50256 70.3986031,13.44224 70.3986031,14.44352 C70.3986031,15.45824 70.5775722,16.40576 70.9377474,17.28608 C71.2968041,18.1664 71.7945619,18.93024 72.4276649,19.5776 C73.0596495,20.22496 73.8090825,20.73568 74.6759639,21.10864 C75.5417268,21.48272 76.4880258,21.66864 77.5137423,21.66864 C78.1658608,21.66864 78.7631701,21.61152 79.303433,21.4984 C79.8425773,21.38528 80.3380979,21.2184 80.792232,20.99888 C81.2441289,20.77936 81.6680619,20.5184 82.0617938,20.21824 C82.1669381,20.13648 82.2709639,20.05248 82.3738711,19.96624 C82.6054124,19.77024 82.7306907,19.516 82.745232,19.21472 C82.7586546,18.91232 82.656866,18.64576 82.4443402,18.43184" id="Fill-2" fill="#333333"></path>
                        <path d="M88.8100464,15.24768 L88.8100464,19.9248 C88.8100464,20.88464 89.5930361,21.66976 90.5516392,21.66976 L98.2405979,21.66976 C98.8155361,21.66976 99.2842113,21.19936 99.2842113,20.62368 L99.2842113,20.5128 C99.2842113,19.93824 98.8155361,19.46784 98.2405979,19.46784 L91.9654948,19.46784 C91.5807113,19.46784 91.268634,19.15424 91.268634,18.7712 L91.268634,16.4024 C91.268634,16.01824 91.5807113,15.70464 91.9654948,15.70464 L97.2406082,15.70464 C97.8155464,15.70464 98.2842216,15.23424 98.2842216,14.65856 L98.2842216,14.5488 C98.2842216,13.97312 97.8155464,13.50384 97.2406082,13.50384 L90.5516392,13.50384 C89.5930361,13.50384 88.8100464,14.28672 88.8100464,15.24768" id="Fill-4" fill="#333333"></path>
                        <path d="M106.985474,21.66976 L114.013366,21.66976 C114.588304,21.66976 115.056979,21.19936 115.056979,20.62368 L115.056979,20.4736 C115.056979,19.89792 114.588304,19.42752 114.013366,19.42752 L108.05034,19.42752 C107.857948,19.42752 107.701351,19.27072 107.701351,19.0792 L107.701351,8.70464 C107.701351,8.12896 107.232675,7.65968 106.656619,7.65968 L106.287495,7.65968 C105.712557,7.65968 105.242763,8.12896 105.242763,8.70464 L105.242763,19.9248 C105.242763,20.88464 106.025753,21.66976 106.985474,21.66976" id="Fill-5" fill="#333333"></path>
                        <path d="M120.657593,19.9248 C120.657593,20.88464 121.439464,21.66976 122.399186,21.66976 L130.087026,21.66976 C130.661964,21.66976 131.130639,21.19936 131.130639,20.62368 L131.130639,20.5128 C131.130639,19.93824 130.661964,19.46784 130.087026,19.46784 L123.811923,19.46784 C123.428258,19.46784 123.115062,19.15424 123.115062,18.7712 L123.115062,16.4024 C123.115062,16.01824 123.428258,15.70464 123.811923,15.70464 L129.087036,15.70464 C129.663093,15.70464 130.131768,15.23424 130.131768,14.65856 L130.131768,14.5488 C130.131768,13.97312 129.663093,13.50384 129.087036,13.50384 L122.399186,13.50384 C121.439464,13.50384 120.657593,14.28672 120.657593,15.24768 L120.657593,19.9248 Z" id="Fill-7" fill="#333333"></path>
                        <path d="M120.657593,19.9248 C120.657593,20.88464 121.439464,21.66976 122.399186,21.66976 L130.087026,21.66976 C130.661964,21.66976 131.130639,21.19936 131.130639,20.62368 L131.130639,20.5128 C131.130639,19.93824 130.661964,19.46784 130.087026,19.46784 L123.811923,19.46784 C123.428258,19.46784 123.115062,19.15424 123.115062,18.7712 L123.115062,16.4024 C123.115062,16.01824 123.428258,15.70464 123.811923,15.70464 L129.087036,15.70464 C129.663093,15.70464 130.131768,15.23424 130.131768,14.65856 L130.131768,14.5488 C130.131768,13.97312 129.663093,13.50384 129.087036,13.50384 L122.399186,13.50384 C121.439464,13.50384 120.657593,14.28672 120.657593,15.24768 L120.657593,19.9248 Z" id="Fill-7" fill="#333333"></path>
                        <path d="M120.657593,13.7161533 C120.657593,14.6759933 121.439464,15.4611133 122.399186,15.4611133 L130.087026,15.4611133 C130.661964,15.4611133 131.130639,14.9907133 131.130639,14.4150333 L131.130639,14.3041533 C131.130639,13.7295933 130.661964,13.2591933 130.087026,13.2591933 L123.811923,13.2591933 C123.428258,13.2591933 123.115062,12.9455933 123.115062,12.5625533 L123.115062,10.1937533 C123.115062,9.80959328 123.428258,9.49599328 123.811923,9.49599328 L129.087036,9.49599328 C129.663093,9.49599328 129.663093,8.41519328 129.087036,8.41519328 L122.399186,8.41519328 L120.657593,7.6608 L120.657593,13.7161533 Z" id="Fill-7-Copy-2" fill="#333333" transform="translate(125.894116, 11.560957) scale(1, -1) translate(-125.894116, -11.560957) "></path>
                        <path d="M160.129222,7.55888 L160.129222,7.55888 C159.420057,7.55888 158.816036,7.95536 158.531923,8.60496 L153.472691,20.2048 C153.327278,20.53856 153.357479,20.89248 153.556582,21.196 C153.754567,21.50064 154.066644,21.66976 154.430175,21.66976 L154.662835,21.66976 C155.090124,21.66976 155.454773,21.42784 155.622557,21.0336 L156.791448,18.28624 L163.40883,18.28624 L164.557588,21.02912 C164.724253,21.4256 165.092258,21.66976 165.521784,21.66976 L165.829387,21.66976 C166.191799,21.66976 166.502758,21.50064 166.702979,21.196 C166.902082,20.89136 166.931165,20.53744 166.785753,20.2048 L161.725402,8.60496 C161.441289,7.95536 160.837268,7.55888 160.129222,7.55888 Z M161.979314,16.1056 L158.218727,16.1056 C158.099041,16.1056 157.995015,16.0496 157.927902,15.9488 C157.863026,15.848 157.85184,15.73152 157.89882,15.61952 L159.770165,11.24592 C159.826093,11.116 159.946897,11.03536 160.088954,11.03424 C160.23101,11.03424 160.352933,11.11376 160.408861,11.24592 L162.298103,15.6184 C162.346201,15.7304 162.336134,15.848 162.269021,15.9488 C162.203026,16.0496 162.099,16.1056 161.979314,16.1056 L161.979314,16.1056 Z" id="Fill-8" fill="#333333"></path>
                        <path d="M147.78483,20.01664 L145.185304,16.36432 C145.678588,16.23216 146.128247,16.04176 146.535402,15.79424 C146.941438,15.54896 147.290428,15.2488 147.58349,14.89376 C147.87767,14.53984 148.106974,14.1344 148.273639,13.67296 C148.440304,13.21264 148.523077,12.6896 148.523077,12.10272 C148.523077,11.42176 148.403392,10.80352 148.164021,10.25024 C147.924649,9.69696 147.580134,9.22992 147.13383,8.85024 C146.688644,8.46944 146.140552,8.176 145.495144,7.9688 C144.848619,7.76272 144.126031,7.65968 143.326263,7.65968 L138.484031,7.65968 C137.715582,7.65968 137.090309,8.28688 137.090309,9.05408 L137.090309,20.62368 C137.090309,21.19936 137.558985,21.66976 138.133923,21.66976 L138.503046,21.66976 C139.079103,21.66976 139.548897,21.19936 139.548897,20.62368 L139.548897,16.78544 L142.627165,16.78544 L145.752412,21.22624 C145.953753,21.51296 146.255763,21.66976 146.605871,21.66976 L146.934727,21.66976 C147.336289,21.66976 147.678567,21.4592 147.863129,21.10304 C148.047691,20.74576 148.018608,20.34368 147.78483,20.01664 Z M146.024222,12.24272 C146.024222,12.96288 145.764716,13.53632 145.245706,13.96304 C144.725577,14.38976 144.026479,14.6048 143.146175,14.6048 L139.896768,14.6048 C139.704376,14.6048 139.548897,14.448 139.548897,14.25536 L139.548897,10.24912 C139.548897,10.0576 139.704376,9.9008 139.896768,9.9008 L143.126041,9.9008 C144.045495,9.9008 144.759134,10.0968 145.26584,10.49104 C145.771428,10.88528 146.024222,11.4688 146.024222,12.24272 L146.024222,12.24272 Z" id="Fill-9" fill="#333333"></path>
                        <path d="M177.532845,9.94 L180.925428,9.94 C181.501485,9.94 181.971278,9.47072 181.971278,8.89504 L181.971278,8.70464 C181.971278,8.12896 181.501485,7.65968 180.925428,7.65968 L171.661541,7.65968 C171.085485,7.65968 170.616809,8.12896 170.616809,8.70464 L170.616809,8.89504 C170.616809,9.47072 171.085485,9.94 171.661541,9.94 L175.054124,9.94 L175.054124,20.62368 C175.054124,21.19936 175.522799,21.66976 176.098856,21.66976 L176.486995,21.66976 C177.063052,21.66976 177.532845,21.19936 177.532845,20.62368 L177.532845,9.94" id="Fill-10" fill="#333333"></path>
                        <path d="M187.615515,13.7161533 C187.615515,14.6759933 188.397387,15.4611133 189.357108,15.4611133 L197.044948,15.4611133 C197.619887,15.4611133 198.088562,14.9907133 198.088562,14.4150333 L198.088562,14.3041533 C198.088562,13.7295933 197.619887,13.2591933 197.044948,13.2591933 L190.769845,13.2591933 C190.38618,13.2591933 190.072985,12.9455933 190.072985,12.5625533 L190.072985,10.1937533 C190.072985,9.80959328 190.38618,9.49599328 190.769845,9.49599328 L196.044959,9.49599328 C196.621015,9.49599328 196.621015,8.41519328 196.044959,8.41519328 L189.357108,8.41519328 L187.615515,7.6608 L187.615515,13.7161533 Z" id="Fill-7-Copy-2" fill="#333333" transform="translate(192.852039, 11.560957) scale(1, -1) translate(-192.852039, -11.560957) "></path>
                        <path d="M187.609923,15.24768 L187.609923,19.9248 C187.609923,20.88464 188.391794,21.66976 189.350397,21.66976 L197.038237,21.66976 C197.614294,21.66976 198.082969,21.19936 198.082969,20.62368 L198.082969,20.5128 C198.082969,19.93824 197.614294,19.46784 197.038237,19.46784 L190.764253,19.46784 C190.380588,19.46784 190.067392,19.15424 190.067392,18.7712 L190.067392,16.4024 C190.067392,16.01824 190.380588,15.70464 190.764253,15.70464 L196.039366,15.70464 C196.614304,15.70464 197.082979,15.23424 197.082979,14.65856 L197.082979,14.5488 C197.082979,13.97312 196.614304,13.50384 196.039366,13.50384 L189.350397,13.50384 C188.391794,13.50384 187.609923,14.28672 187.609923,15.24768" id="Fill-12" fill="#333333"></path>
                        <path d="M41.1986804,7.55888 L41.1986804,7.55888 C40.490634,7.55888 39.8854948,7.95536 39.6025,8.60496 L34.5421495,20.2048 C34.3967371,20.53856 34.4269381,20.89248 34.6260412,21.196 C34.8240258,21.50064 35.1361031,21.66976 35.499634,21.66976 L35.7311753,21.66976 C36.1595825,21.66976 36.524232,21.42784 36.6920155,21.0336 L37.8609072,18.28624 L44.4782887,18.28624 L45.6281649,21.02912 C45.7937113,21.4256 46.1605979,21.66976 46.5901237,21.66976 L46.8977268,21.66976 C47.2612577,21.66976 47.5733351,21.50064 47.7724381,21.196 C47.9715412,20.89136 48.0017423,20.53744 47.8552113,20.2048 L42.7937423,8.60496 C42.5107474,7.95536 41.9056082,7.55888 41.1986804,7.55888 Z M43.0476546,16.1056 L39.287067,16.1056 C39.1673814,16.1056 39.0633557,16.0496 38.9973608,15.9488 C38.931366,15.848 38.9201804,15.73152 38.9671598,15.61952 L40.8396237,11.24592 C40.8955515,11.116 41.0163557,11.03536 41.1572938,11.03424 C41.3004691,11.03424 41.4223918,11.11376 41.4794381,11.24592 L43.3675619,15.6184 C43.4156598,15.7304 43.4055928,15.848 43.3384794,15.9488 C43.2724845,16.0496 43.1684588,16.1056 43.0476546,16.1056 L43.0476546,16.1056 Z" id="Fill-13" fill="#333333"></path>
                        <path d="M214.748345,18.2336 C214.748345,18.52704 214.702485,18.80032 214.610763,19.05568 C214.519041,19.3088 214.385933,19.5328 214.21032,19.72544 C214.034706,19.91808 213.824418,20.07152 213.577216,20.18464 C213.331134,20.29664 213.054851,20.35264 212.74501,20.35264 C212.453067,20.35264 212.183495,20.29664 211.937412,20.18464 C211.69133,20.07152 211.477686,19.91808 211.298716,19.72544 C211.118629,19.5328 210.979928,19.30544 210.879258,19.04224 C210.778588,18.77904 210.729371,18.50016 210.729371,18.20896 C210.729371,17.91552 210.774113,17.64224 210.866954,17.38688 C210.958675,17.13152 211.091784,16.90864 211.267397,16.71712 C211.441892,16.52448 211.654418,16.37104 211.899381,16.25904 C212.145464,16.14592 212.418392,16.0888 212.720402,16.0888 C213.020175,16.0888 213.294222,16.14592 213.540304,16.25904 C213.786387,16.37104 213.998912,16.52672 214.179,16.72384 C214.359088,16.91872 214.498907,17.1472 214.599577,17.40592 C214.69801,17.66464 214.748345,17.94128 214.748345,18.2336 Z M216.26399,18.20896 C216.26399,17.73184 216.176742,17.28496 216.001129,16.86608 C215.825515,16.44832 215.58167,16.0832 215.268474,15.7696 C214.955278,15.456 214.583918,15.2096 214.154392,15.0304 C213.723747,14.85008 213.253954,14.76048 212.74501,14.76048 C212.234948,14.76048 211.766273,14.85232 211.336747,15.036 C210.907222,15.21968 210.534742,15.46832 210.221546,15.78304 C209.908351,16.09552 209.662268,16.46288 209.48218,16.88512 C209.303211,17.30848 209.212608,17.75648 209.212608,18.2336 C209.212608,18.71072 209.300974,19.15648 209.475469,19.56976 C209.652201,19.98304 209.894928,20.34704 210.209242,20.65952 C210.522438,20.97424 210.893799,21.21952 211.323325,21.39984 C211.753969,21.58016 212.219289,21.66976 212.720402,21.66976 C213.229345,21.66976 213.701376,21.57792 214.134258,21.39424 C214.569376,21.21056 214.942974,20.9608 215.255052,20.6472 C215.569366,20.3336 215.81433,19.96736 215.995536,19.55072 C216.174505,19.13184 216.26399,18.68496 216.26399,18.20896 L216.26399,18.20896 Z" id="Fill-14" fill="#333333"></path>
                        <path d="M206.862521,15.04496 C207.267438,15.04496 207.598531,15.37536 207.598531,15.78192 L207.598531,15.78192 L207.598531,20.92832 C207.598531,21.33488 207.267438,21.6664 206.862521,21.6664 L206.862521,21.6664 L206.818897,21.6664 C206.412861,21.6664 206.082887,21.33488 206.082887,20.92832 L206.082887,20.92832 L206.082887,15.78192 C206.082887,15.37536 206.412861,15.04496 206.818897,15.04496 L206.818897,15.04496 Z M203.358082,19.65488 C203.912887,19.65488 204.362546,20.104 204.362546,20.65952 C204.362546,21.21504 203.912887,21.66528 203.358082,21.66528 C202.803278,21.66528 202.353619,21.21504 202.353619,20.65952 C202.353619,20.104 202.803278,19.65488 203.358082,19.65488 Z" id="Fill-18" fill="#333333"></path>
                        <path d="M206.80883,12.14864 C207.363634,12.14864 207.812175,12.59888 207.812175,13.1544 C207.812175,13.70992 207.363634,14.16016 206.80883,14.16016 C206.254026,14.16016 205.804366,13.70992 205.804366,13.1544 C205.804366,12.59888 206.254026,12.14864 206.80883,12.14864" id="Fill-16" fill="#333333"></path>
                        <g id="Group-22" stroke-width="1">
                            <path d="M1.84114433,26.94832 L0.800886598,25.22016 C-0.211407216,23.54016 -0.265097938,21.60592 0.64764433,19.8688 L9.12742268,3.75536 C10.0927371,1.91968 11.8678866,0.84784 13.9383351,0.84784 L15.2559948,0.84784 C15.4987216,0.84784 15.7067732,0.96544 15.8342887,1.17376 C15.9618041,1.38096 15.9707526,1.62176 15.8588969,1.83904 C11.5815361,10.19424 7.27061856,18.53824 3.02905155,26.90464 C2.91384021,27.132 2.70243299,27.26864 2.44852062,27.27648 C2.19460825,27.28656 1.97201546,27.1656 1.84114433,26.94832" id="Fill-19" fill="#05A8ED"></path>
                            <path d="M18.296232,4.51248 L26.405768,19.92144 C27.2883093,21.5992 27.2659381,23.45392 26.3442474,25.11152 L25.4236753,26.76576 C25.3185309,26.95616 25.1473918,27.07488 24.9337474,27.10736 C24.7189845,27.13984 24.5198814,27.07824 24.3621649,26.92928 L12.8667577,15.98352 C12.2012165,15.35072 12.0390258,14.392 12.457366,13.57328 L17.0904278,4.5192 C17.2089948,4.28736 17.4304691,4.15072 17.6910928,4.149593 C17.9517165,4.14848 18.1754278,4.28176 18.296232,4.51248" id="Fill-20" fill="#FC7D03"></path>
                            <path d="M6.22700515,28 L20.3856959,28 C20.6686907,28 20.910299,27.83648 21.0154433,27.57216 C21.1205876,27.30896 21.059067,27.02224 20.8532526,26.82624 L11.4540206,17.88304 C11.1262835,17.57168 10.3421753,17.7576 10.1352423,18.1608 C8.58604124,21.18256 7.15540722,23.98368 5.62074742,27.01104 C5.51112887,27.2272 5.52119588,27.468 5.64759278,27.67632 C5.77510825,27.88352 5.98427835,28 6.22700515,28" id="Fill-21" fill="#576991"></path>
                        </g>
                        <path d="M88.8134021,13.7161533 C88.8134021,14.6759933 89.5952732,15.4611133 90.5549948,15.4611133 L98.2428351,15.4611133 C98.8177732,15.4611133 99.2864485,14.9907133 99.2864485,14.4150333 L99.2864485,14.3041533 C99.2864485,13.7295933 98.8177732,13.2591933 98.2428351,13.2591933 L91.967732,13.2591933 C91.584067,13.2591933 91.2708711,12.9455933 91.2708711,12.5625533 L91.2708711,10.1937533 C91.2708711,9.80959328 91.584067,9.49599328 91.967732,9.49599328 L97.2428454,9.49599328 C97.8189021,9.49599328 97.8189021,8.41519328 97.2428454,8.41519328 L90.5549948,8.41519328 L88.8134021,7.6608 L88.8134021,13.7161533 Z" id="Fill-7-Copy-2" fill="#333333" transform="translate(94.049925, 11.560957) scale(1, -1) translate(-94.049925, -11.560957) "></path>
                    </g>
                </g>
            </g>
        </g>
    </g>
</svg>