<svg width="647" height="213" viewBox="0 0 647 213" fill="none" xmlns="http://www.w3.org/2000/svg">
	<path d="M10.9358 31.0051C5.07479 31.0051 0 35.8249 0 41.9396C0 48.1262 5.07479 52.9461 10.9358 52.9461C17.0827 52.9461 21.8002 48.0543 21.8002 41.9396C21.8716 35.8249 17.0827 31.0051 10.9358 31.0051Z" fill="#000000"/>
	<path d="M24.1589 128.049C20.9425 128.049 18.6552 126.107 18.6552 122.582V72.1534C18.6552 70.1391 17.1542 68.7004 15.2244 68.7004H5.93252C3.9312 68.7004 2.50168 70.211 2.50168 72.1534C2.50168 72.1534 2.50168 124.668 2.50168 124.596C2.50168 137.976 9.29189 144.091 19.227 144.091C21.6572 144.091 23.3726 144.019 25.0881 143.515C26.0887 143.228 26.8035 142.221 26.8035 141.141V130.639C26.875 128.912 25.5884 128.049 24.1589 128.049Z" fill="#000000"/>
	<path d="M140.879 68.9162H130.801C129.3 68.9162 127.942 69.8514 127.442 71.3621L111.931 120.136L96.1351 71.2901C95.7062 69.9233 94.3482 68.8442 92.8472 68.8442H85.4852C83.9842 68.8442 82.6976 69.7794 82.1973 71.2182L66.0437 120.064L50.9623 71.2182C50.5335 69.7075 49.2469 68.7723 47.6029 68.7723H37.5963C35.2376 68.7723 33.5222 71.1462 34.3799 73.4482L56.8948 140.998C57.3237 142.364 58.6817 143.372 60.1112 143.372H70.3323C71.8333 143.372 73.1199 142.436 73.5487 140.998L88.916 95.1014L104.283 140.998C104.712 142.364 106.07 143.372 107.571 143.372H118.078C119.579 143.372 120.866 142.436 121.295 140.998L143.81 73.4482C144.882 71.2901 143.166 68.9162 140.879 68.9162Z" fill="#000000"/>
	<path d="M190.912 67.2616C169.041 67.2616 152.029 84.3827 152.029 106.036C152.029 127.689 169.041 144.81 190.912 144.81C212.784 144.81 229.795 127.689 229.795 106.036C229.795 84.3827 212.927 67.2616 190.912 67.2616ZM190.912 129.631C177.689 129.631 168.612 119.344 168.612 106.108C168.612 92.8714 177.618 82.5843 190.912 82.5843C204.135 82.5843 213.213 92.8714 213.213 106.108C213.284 119.344 203.778 129.631 190.912 129.631Z" fill="#000000"/>
	<path d="M279.685 82.2965C287.619 82.2965 294.266 86.3251 298.269 92.0081C299.198 93.303 300.914 93.7346 302.486 93.2311L311.349 89.4903C312.564 88.9148 313.35 87.7638 313.35 86.2531C313.35 85.6776 313.279 85.0302 312.922 84.5985C312.922 84.5266 303.63 67.1897 280.114 67.1897C257.599 67.1897 240.374 84.1669 240.374 106.396C240.374 128.624 257.528 145.602 280.114 144.738C302.915 144.738 312.779 127.545 312.779 127.545C313.136 126.97 313.35 126.322 313.35 125.603C313.35 124.236 312.564 123.013 311.278 122.366L302.415 118.625C300.842 118.05 299.127 118.337 298.198 119.848C294.123 125.747 287.691 129.775 279.685 129.775C266.748 129.775 256.813 118.841 256.813 105.82C256.884 92.5836 266.462 82.2965 279.685 82.2965Z" fill="#000000"/>
	<path d="M404.554 127.977C401.337 127.977 399.479 125.963 399.05 122.51V72.3692C399.05 70.3549 397.549 68.9162 395.619 68.9162H386.399C384.397 68.9162 382.968 70.4269 382.968 72.3692V75.6064C378.108 70.211 370.46 67.2616 361.454 67.2616C338.081 67.2616 324.429 85.9654 324.429 105.82C324.429 127.473 339.511 144.738 361.454 144.738C369.673 144.738 377.536 143.156 386.399 133.084C388.4 139.631 393.475 144.019 399.693 144.019C402.123 144.019 403.839 143.947 405.554 143.443C406.626 143.156 407.27 142.149 407.27 141.07V130.567C407.27 129.056 405.983 127.977 404.554 127.977ZM383.182 119.56C379.037 125.315 373.176 129.847 364.027 130.135C349.589 130.135 340.94 119.488 340.94 105.82C340.94 91.7204 350.303 82.2966 364.027 82.2966C370.888 82.2966 378.251 85.6776 383.039 92.5117V119.56H383.182Z" fill="#000000"/>
	<path d="M561.515 76.038L581.671 67.5494C583.243 66.9739 584.887 68.053 584.887 69.7075V142.364C584.887 144.091 583.243 145.17 581.671 144.523L561.515 136.178C560.657 135.746 560.157 134.955 560.157 134.02V78.2681C560.085 77.261 560.729 76.3977 561.515 76.038Z" fill="#000000"/>
	<path d="M522.846 78.1961V133.948C522.846 134.883 522.346 135.674 521.488 136.106L501.332 144.451C499.76 145.026 498.116 144.019 498.116 142.293V69.6356C498.116 67.981 499.76 66.83 501.332 67.4774L521.488 75.9661C522.203 76.3977 522.846 77.2609 522.846 78.1961Z" fill="#000000"/>
	<path d="M635.135 0H448.011C441.435 0 436.146 5.32338 436.146 11.9416V200.13C436.146 206.749 441.435 212.072 448.011 212.072H635.778C642.354 212.072 647.072 206.749 647 200.13V11.9416C647 5.32338 641.711 0 635.135 0ZM622.198 187.182H460.877V24.8185H622.198V187.182Z" fill="#000000"/>
</svg>