<svg width="52px" height="59px" viewBox="0 0 52 59" version="1.1" xmlns="http://www.w3.org/2000/svg" xmlns:xlink="http://www.w3.org/1999/xlink">
    <!-- Generator: Sketch 61 (89581) - https://sketch.com -->
    <title>c-sharp-logo</title>
    <desc>Created with Sketch.</desc>
    <g id="Page-1" stroke="none" stroke-width="1" fill="none" fill-rule="evenodd">
        <g id="Desktop---curve" transform="translate(-348.000000, -4050.000000)" fill-rule="nonzero">
            <g id="c-sharp-logo" transform="translate(348.000000, 4050.000000)">
                <path d="M50.8423006,13.4549356 L27.5435993,0.330472103 C27.1576994,0.0944206009 26.6270872,0 26.0482375,0 C25.4693878,0 24.9387755,0.141630901 24.5528757,0.330472103 L1.39888683,13.5021459 C0.578849722,13.9742489 0,15.1545064 0,16.0515021 L0,42.3476395 C0,42.8669528 0.0964749536,43.4806867 0.482374768,44 L52,14.7296137 C51.7105751,14.1630901 51.2764378,13.7381974 50.8423006,13.4549356 Z" id="Path" fill="#9B4F96"></path>
                <path d="M1,44.4918919 C1.23787313,44.8724324 1.57089552,45.2054054 1.90391791,45.3956757 L24.8348881,58.667027 C25.2154851,58.9048649 25.738806,59 26.3097015,59 C26.880597,59 27.4039179,58.8572973 27.7845149,58.667027 L50.6203358,45.3956757 C51.4291045,44.92 52,43.7308108 52,42.827027 L52,16.3318919 C52,15.9037838 51.9524254,15.4281081 51.7145522,15 L1,44.4918919 Z" id="Path" fill="#68217A"></path>
                <path d="M36.9844789,35.8202532 C34.9822616,39.3797468 31.1685144,41.7848101 26.8303769,41.7848101 C20.3946785,41.7848101 15.1507761,36.4936709 15.1507761,30 C15.1507761,23.5063291 20.3946785,18.2151899 26.8303769,18.2151899 C31.1685144,18.2151899 34.9822616,20.6202532 36.9844789,24.2278481 L43.1818182,20.6202532 C39.940133,14.8962025 33.8381375,11 26.8303769,11 C16.4379157,11 8,19.5139241 8,30 C8,40.4860759 16.4379157,49 26.8303769,49 C33.7904656,49 39.8924612,45.1518987 43.1341463,39.4759494 L36.9844789,35.8202532 L36.9844789,35.8202532 Z M42.5620843,31.0582278 L42.9911308,28.9898734 L40.9889135,28.9898734 L40.9889135,26.7291139 L43.4201774,26.7291139 L43.9922395,23.7468354 L46.3281596,23.7468354 L45.7560976,26.6810127 L47.5676275,26.6810127 L48.1396896,23.7468354 L50.4279379,23.7468354 L49.8558758,26.6810127 L51,26.6810127 L51,28.9417722 L49.4268293,28.9417722 L48.9977827,31.0101266 L51,31.0101266 L51,33.2708861 L48.5687361,33.2708861 L47.9966741,36.156962 L45.6607539,36.156962 L46.232816,33.2708861 L44.421286,33.2708861 L43.8492239,36.156962 L41.5609756,36.156962 L42.1330377,33.2708861 L40.9889135,33.2708861 L40.9889135,31.0101266 L42.5620843,31.0101266 L42.5620843,31.0582278 Z M44.8503326,31.0582278 L46.6618625,31.0582278 L47.0909091,28.9898734 L45.2793792,28.9898734 L44.8503326,31.0582278 Z" id="Shape" fill="#FFFFFF"></path>
            </g>
        </g>
    </g>
</svg>