<svg width="27px" height="38px" viewBox="0 0 27 38" version="1.1" xmlns="http://www.w3.org/2000/svg" xmlns:xlink="http://www.w3.org/1999/xlink">
    <!-- Generator: Sketch 61 (89581) - https://sketch.com -->
    <title>Java</title>
    <desc>Created with Sketch.</desc>
    <g id="Page-1" stroke="none" stroke-width="1" fill="none" fill-rule="evenodd">
        <g id="Desktop---curve" transform="translate(-709.000000, -4055.000000)" fill-rule="nonzero">
            <g id="Java" transform="translate(709.000000, 4055.000000)">
                <path d="M9.70966297,29 C9.70966297,29 8.3497683,29.8022999 10.6770107,30.0745088 C13.4949368,30.4040248 14.9389487,30.3610445 18.0372654,29.7593195 C18.0372654,29.7593195 18.8503983,30.2894105 20,30.7335408 C13.0322922,33.7851458 4.24204521,30.5616194 9.70966297,29 L9.70966297,29 Z" id="XMLID_16_" fill="#0074BD"></path>
                <path d="M7.95470393,25 C7.95470393,25 6.38982041,26.1840447 8.77303751,26.4325479 C11.8597344,26.7541403 14.2860216,26.783376 18.5069001,25.9501593 C18.5069001,25.9501593 19.095526,26.5494906 20,26.8857008 C11.400319,29.4438222 1.79566696,27.0757327 7.95470393,25 L7.95470393,25 Z" id="XMLID_15_" fill="#0074BD"></path>
                <path d="M15.5862123,17.099806 C17.3097412,19.1517738 15.1341392,21 15.1341392,21 C15.1341392,21 19.527725,18.671526 17.5075232,15.7463805 C15.6285942,13.0249765 14.1734838,11.671551 22,7 C22,6.9854971 9.72338879,10.14349 15.5862123,17.099806 L15.5862123,17.099806 Z" id="XMLID_14_" fill="#EA2D2E"></path>
                <path d="M25.2758777,31.3319604 C25.2758777,31.3319604 26.3397761,32.2032466 24.1085447,32.8825545 C19.8677274,34.1673325 6.46556263,34.5512892 2.75669453,32.9268572 C1.42682151,32.3509223 3.92402752,31.5387063 4.72195133,31.3614955 C5.54942788,31.1842848 6.00749526,31.2138199 6.00749526,31.2138199 C4.5150822,30.1653229 -3.61191961,33.2665112 1.88488888,34.1673325 C16.8385722,36.6039805 29.1620622,33.0893004 25.2758777,31.3319604 L25.2758777,31.3319604 Z" id="XMLID_13_" fill="#0074BD"></path>
                <path d="M9.28280823,21.0055078 C9.28280823,21.0055078 2.77482582,22.4868505 6.98172117,23.0120538 C8.76047559,23.2409886 12.2897502,23.1871216 15.5931513,22.9177866 C18.2895171,22.7023186 21,22.244449 21,22.244449 C21,22.244449 20.0541544,22.6349848 19.3624166,23.0793876 C12.7556145,24.7357981 -0.0203596897,23.9681932 3.65008592,22.2713825 C6.7558476,20.8439068 9.28280823,21.0055078 9.28280823,21.0055078 L9.28280823,21.0055078 Z" id="XMLID_12_" fill="#0074BD"></path>
                <path d="M20.1338926,27.8176904 C27.2153208,24.3538075 23.9423918,21.0161389 21.6513415,21.4649011 C21.0860174,21.5770916 20.8479862,21.6752584 20.8479862,21.6752584 C20.8479862,21.6752584 21.0562635,21.3667344 21.4579411,21.24052 C25.9805339,19.7399716 29.4617403,25.6580225 20,28 C20,28 20.1041387,27.9018333 20.1338926,27.8176904 L20.1338926,27.8176904 Z" id="XMLID_11_" fill="#0074BD"></path>
                <path d="M17.0677649,0 C17.0677649,0 20.6984872,3.79310345 13.629581,9.61206897 C7.96345394,14.2816092 12.3368239,16.954023 13.629581,20 C10.3151717,16.8821839 7.89469026,14.137931 9.51751307,11.5804598 C11.9104891,7.84482759 18.5255549,6.02011494 17.0677649,0 L17.0677649,0 Z" id="XMLID_10_" fill="#EA2D2E"></path>
                <path d="M10.1452769,37.8688074 C16.695114,38.3503328 26.7563518,37.6031382 27,34 C27,34 26.5413681,35.3615545 21.5824104,36.4408356 C15.9928339,37.6529512 9.0990228,37.5201166 5,36.7397134 C5.01433225,36.7397134 5.84560261,37.5533252 10.1452769,37.8688074 L10.1452769,37.8688074 Z" id="XMLID_9_" fill="#0074BD"></path>
            </g>
        </g>
    </g>
</svg>