<svg width="49px" height="55px" viewBox="0 0 49 55" version="1.1" xmlns="http://www.w3.org/2000/svg" xmlns:xlink="http://www.w3.org/1999/xlink">
    <!-- Generator: Sketch 61 (89581) - https://sketch.com -->
    <title>node</title>
    <desc>Created with Sketch.</desc>
    <g id="Page-1" stroke="none" stroke-width="1" fill="none" fill-rule="evenodd">
        <g id="Desktop---curve" transform="translate(-996.000000, -4051.000000)" fill="#83CD29" fill-rule="nonzero">
            <g id="node" transform="translate(996.000000, 4051.000000)">
                <path d="M47.0633551,12.1867945 L26.8694019,0.54036173 C25.5958598,-0.180120577 23.9376449,-0.180120577 22.654028,0.54036173 L2.24438318,12.1867945 C0.930084112,12.9377517 0,14.3491511 0,15.858798 L0,39.1207337 C0,40.6303807 0.95435514,42.0422349 2.26865421,42.7972858 L7.66094393,45.8393222 C10.2382523,47.1001662 11.1491028,47.1001662 12.3218972,47.1001662 C16.1379439,47.1001662 18.317757,44.8081774 18.317757,40.8105012 L18.317757,17.8451277 C18.317757,17.5208197 18.1478598,17.0382239 17.8272991,17.0382239 L15.2522804,17.0382239 C14.9262243,17.0382239 14.1962617,17.5208197 14.1962617,17.8446729 L14.1962617,40.8100464 C14.1962617,42.5821418 12.5824673,44.345595 9.5664486,42.8477741 L3.99464486,39.6579115 C3.80047664,39.553296 3.6635514,39.3427005 3.6635514,39.1207337 L3.6635514,15.858798 C3.6635514,15.6395604 3.91771028,15.419413 4.11325234,15.3070651 L24.4569533,3.68064572 C24.647,3.57375599 24.9263458,3.57375599 25.1159346,3.68064572 L45.2114299,15.304336 C45.4037664,15.419413 45.3359907,15.6327376 45.3359907,15.858798 L45.3359907,39.1207337 C45.3359907,39.3427005 45.4197944,39.5587542 45.2297477,39.6656439 L25.0408318,51.298886 C24.867729,51.402137 24.6529533,51.402137 24.4633645,51.298886 L19.2853925,48.2291038 C19.1292336,48.1390435 18.9437664,48.1067491 18.7940187,48.1899867 C17.3533271,49.0009841 17.0877196,49.1087836 15.7363271,49.5740951 C15.4038598,49.6891721 14.9134019,49.8888512 15.9240841,50.4515006 L22.7007383,54.433257 C23.3496449,54.8062339 24.0869346,55 24.8288037,55 C25.5807477,55 26.3171215,54.8062339 26.966028,54.433257 L47.0628972,42.7972858 C48.3771963,42.0367767 49,40.6303807 49,39.1207337 L49,15.858798 C49,14.3491511 48.3771963,12.9413905 47.0633551,12.1867945 L47.0633551,12.1867945 Z M31.098972,35.4346298 C25.7291215,35.4346298 24.5462523,33.9631902 24.1519626,31.3109602 C24.1061682,31.0253145 23.8620841,30.6837222 23.5694579,30.6837222 L20.9449813,30.6837222 C20.6202991,30.6837222 20.359271,31.0748931 20.359271,31.3960172 C20.359271,34.7919268 22.2180654,38.9064994 31.0994299,38.9064994 C37.5285047,38.9064994 41.2144953,36.425293 41.2144953,32.0341716 C41.2144953,27.680348 38.252972,26.537765 32.0180654,25.7181254 C25.7158411,24.8907533 25.0756355,24.4727462 25.0756355,23.00631 C25.0756355,21.7973189 25.6178411,20.1848758 30.2842897,20.1848758 C34.4538692,20.1848758 35.990729,21.0736526 36.6231495,23.8650667 C36.6771869,24.1275151 36.9185234,24.315823 37.191,24.315823 L39.8260093,24.315823 C39.9881215,24.315823 40.1429065,24.2507794 40.2564766,24.1357024 C40.3663832,24.0119832 40.4245421,23.8568794 40.4098879,23.6904043 C40.0018598,18.8835501 36.7866355,16.6434142 30.2838318,16.6434142 C24.4995421,16.6434142 21.0489346,19.0695838 21.0489346,23.1363971 C21.0489346,27.5475318 24.4821402,28.7665297 30.0347103,29.3118947 C36.6771869,29.9586914 37.1937477,30.9229732 37.1937477,32.2206601 C37.1937477,34.4744416 35.3720467,35.4346298 31.098972,35.4346298 Z" id="Shape"></path>
            </g>
        </g>
    </g>
</svg>