<svg width="49px" height="47px" viewBox="0 0 49 47" version="1.1" xmlns="http://www.w3.org/2000/svg" xmlns:xlink="http://www.w3.org/1999/xlink">
<!-- Generator: Sketch 61 (89581) - https://sketch.com -->
<title>python</title>
<desc>Created with Sketch.</desc>
<defs>
    <linearGradient x1="1.06341024e-07%" y1="5.55102049%" x2="74.5209927%" y2="62.543834%" id="linearGradient-1">
        <stop stop-color="#5A9FD4" offset="0%"></stop>
        <stop stop-color="#306998" offset="100%"></stop>
    </linearGradient>
    <linearGradient x1="49.9999998%" y1="78.6923592%" x2="23.4426562%" y2="45.479033%" id="linearGradient-2">
        <stop stop-color="#FFD43B" offset="0%"></stop>
        <stop stop-color="#FFE873" offset="100%"></stop>
    </linearGradient>
</defs>
<g id="Page-1" stroke="none" stroke-width="1" fill="none" fill-rule="evenodd">
    <g id="Desktop---curve" transform="translate(-927.000000, -4055.000000)" fill-rule="nonzero">
        <g id="python" transform="translate(927.000000, 4055.000000)">
            <path d="M23.3572618,0.000365078031 C21.4078089,0.00882342927 19.5461251,0.164072139 17.908035,0.434734097 C13.0824269,1.2307975 12.2062835,2.89702645 12.2062831,5.96983649 L12.2062831,10.0280842 L23.6097869,10.0280842 L23.6097869,11.3808334 L12.2062831,11.3808334 L7.92664642,11.3808334 C4.61247071,11.3808334 1.71048357,13.2409125 0.80277912,16.7794198 C-0.244246479,20.8353704 -0.290687756,23.3663496 0.80277912,27.6014136 C1.61338092,30.7538314 3.54920779,33 6.86338266,33 L10.7841678,33 L10.7841678,28.135067 C10.7841678,24.62044 14.0407933,21.5202482 17.908035,21.5202474 L29.2982481,21.5202474 C32.4688798,21.5202474 35,19.0825529 35,16.1092504 L35,5.96983649 C35,3.08410159 32.3928858,0.916351583 29.2982481,0.434734097 C27.3392964,0.130238813 25.3067146,-0.00809327321 23.3572618,0.000365078031 Z M17.190332,3.26433803 C18.3682355,3.26433803 19.3301503,4.1772163 19.3301503,5.29966715 C19.3301503,6.41813947 18.3682355,7.32258572 17.190332,7.32258572 C16.0082055,7.32258572 15.0505136,6.41813907 15.0505136,5.29966715 C15.0505136,4.1772167 16.0082055,3.26433803 17.190332,3.26433803 Z" id="path1948" fill="url(#linearGradient-1)"></path>
            <path d="M38.1666341,14 L38.1666341,18.692436 C38.1666341,22.3304183 34.845,25.3923967 31.0572401,25.3923971 L19.690168,25.3923971 C16.5765365,25.3923971 14,27.8668437 14,30.7622189 L14,40.8244755 C14,43.6882517 16.6818705,45.3726929 19.690168,46.1942973 C23.2925429,47.1778555 26.7470318,47.3556094 31.0572401,46.1942973 C33.9222856,45.4240422 36.7474094,43.8738997 36.7474081,40.8244755 L36.7474081,36.7971103 L25.3803359,36.7971103 L25.3803359,35.4546549 L36.7474081,35.4546549 L42.4375778,35.4546549 C45.7450206,35.4546549 46.9775094,33.3124771 48.1277415,30.0971492 C49.3158931,26.7870192 49.2653379,23.6037928 48.1277415,19.3575057 C47.3103607,16.300179 45.7492269,14 42.4375778,14 L38.1666341,14 Z M31.773485,39.4820212 C32.9532107,39.4820212 33.908956,40.3795862 33.908956,41.4895452 C33.908956,42.6034531 32.9532094,43.5093864 31.773485,43.5093864 C30.5979733,43.5093864 29.6380141,42.6034531 29.6380141,41.4895452 C29.6380141,40.3795862 30.597972,39.4820212 31.773485,39.4820212 Z" id="path1950" fill="url(#linearGradient-2)"></path>
        </g>
    </g>
</g>
</svg>