<svg width="37px" height="37px" viewBox="0 0 37 37" version="1.1" xmlns="http://www.w3.org/2000/svg" xmlns:xlink="http://www.w3.org/1999/xlink">
    <!-- Generator: Sketch 61 (89581) - https://sketch.com -->
    <title>ruby</title>
    <desc>Created with Sketch.</desc>
    <g id="Page-1" stroke="none" stroke-width="1" fill="none" fill-rule="evenodd">
        <g id="Desktop---curve" transform="translate(-870.000000, -4052.000000)" fill="#D91404" fill-rule="nonzero">
            <g id="ruby" transform="translate(870.000000, 4052.000000)">
                <path d="M26.3176694,22.3094707 C20.9396656,25.9181325 15.6107799,29.4942878 10.1412002,33.1636286 C18.3322496,34.3282304 26.3771938,35.4715946 34.5815633,36.63793 C31.7868329,31.7918517 29.0636981,27.0705985 26.3176694,22.3094707 L26.3176694,22.3094707 Z M36.8942714,6.34094682 C36.1720705,7.46957468 35.4486207,8.59776911 34.7276685,9.72726381 C32.2509563,13.6068137 29.7750765,17.4859302 27.301278,21.3667803 C27.1634979,21.5834908 26.9849248,21.7551254 27.1788993,22.0879926 C29.5698632,26.1981224 31.9412632,30.3212548 34.3184907,34.4396196 C34.6935357,35.0901842 35.0731595,35.7381484 35.5585118,36.3622744 L37,6.37345338 L36.8942714,6.34094682 L36.8942714,6.34094682 Z M4.26077761,19.1563341 C4.37274998,19.2668564 4.65205652,19.3305693 4.78151157,19.2642559 C7.07465575,18.0905522 9.38236882,16.9432873 11.6255625,15.6729308 C12.3565048,15.2594473 12.9184479,14.5169975 13.549073,13.9154093 C15.6357551,11.9229738 17.7186909,9.92620397 19.8016268,7.92900076 C19.9294168,7.80634266 20.0796845,7.68801878 20.1562753,7.53328754 C20.904284,6.01068014 21.6389726,4.48113802 22.4003015,2.90652012 C21.4924512,2.5524153 20.6320538,2.20437837 19.7612501,1.88798116 C19.6430339,1.8450725 19.4573846,1.9304564 19.3283458,2.00500478 C17.3124269,3.17784156 15.2586288,4.28783232 13.3063968,5.56685721 C12.3294483,6.20658636 11.5335703,7.14927668 10.6685942,7.97104258 C9.2753915,9.29557665 7.88302133,10.6231447 6.50938259,11.9710835 C6.14474395,12.3286557 5.81257313,12.7373715 5.52910404,13.167325 C4.58920214,14.5915458 3.67843803,16.0361375 2.72479975,17.5223375 C3.25843758,18.0970536 3.74254118,18.6457643 4.26077761,19.1563341 Z M12.6412227,17.2089743 C11.5011025,22.2266873 10.3663937,27.2157945 9.19505445,32.3691682 C14.6891931,28.6833575 20.0563743,25.0824972 25.3877576,21.505475 C21.1448789,20.0751862 16.9153204,18.6496651 12.6412227,17.2089743 L12.6412227,17.2089743 Z M21.7309648,8.78283981 L26.4013365,20.6117612 C29.449982,15.8436986 32.4378544,11.1696883 35.4935762,6.38905653 C30.851926,7.19651955 26.3209995,7.98447863 21.7309648,8.78283981 Z M12.8326996,16.1826337 C17.0127239,17.5960191 21.1099136,18.9807986 25.3253195,20.4054529 C23.7597876,16.4340178 22.2479525,12.6017108 20.704482,8.68792064 L12.8326996,16.1826337 L12.8326996,16.1826337 Z M4.43352309,22.0823581 L0.0611893619,32.9651219 C2.86299613,32.8788711 5.57947079,32.7952209 8.38835388,32.7089702 C7.0696607,29.1653214 5.77677527,25.69102 4.43352309,22.0823581 L4.43352309,22.0823581 Z M8.48742237,30.1851607 L8.59065341,30.1617559 C9.59007965,25.8327486 10.604491,21.5336474 11.6255625,17.0360394 C9.34865224,18.2678214 7.17663802,19.4432587 4.9446832,20.6512025 C6.08313833,23.7336915 7.29776798,26.9843478 8.48742237,30.1851607 L8.48742237,30.1851607 Z M33.8131581,5.6873482 C32.4832261,5.32067417 31.1545428,4.95226646 29.823362,4.58819296 C27.9115066,4.06505401 25.9979862,3.54754954 24.0869634,3.01920954 C23.8484497,2.95332957 23.675288,2.91042091 23.5350104,3.20991471 C22.8598461,4.65060556 22.1630366,6.08089432 21.4770498,7.5159507 C21.4558208,7.56059305 21.4599833,7.61867144 21.4437494,7.72919376 C25.5846458,7.07602856 29.6980695,6.42676415 33.8106606,5.77793316 L33.8131581,5.6873482 L33.8131581,5.6873482 Z M26.099136,2.40981984 C29.6701805,3.43876091 33.2412249,4.46726855 36.9371456,5.53175012 L35.1464202,0.218877522 C32.1119274,0.919719012 29.1136486,1.61189209 26.1153699,2.30406516 L26.099136,2.40981984 L26.099136,2.40981984 Z M29.3800513,36.8052305 L20.4884461,35.5413753 C16.795023,35.0165027 13.1082598,34.4387527 9.40651157,33.9944964 C8.06409189,33.8336972 6.68587436,33.9819272 5.32472325,34.0057653 C4.20624831,34.0257027 3.08777338,34.0699116 1.9697147,34.1067524 C1.85441229,34.1102197 1.73952615,34.1344913 1.62505625,34.2632173 C10.8700612,35.1534637 20.1158987,36.0432767 29.3604874,36.9339565 L29.3800513,36.8052305 L29.3800513,36.8052305 Z M0.243508685,29.6433846 C1.43566061,26.7650368 2.62115246,23.884522 3.81746692,21.0087747 C3.93734812,20.719683 3.92860679,20.5242102 3.69425569,20.2923301 C3.19350194,19.7960632 2.72896229,19.2616553 2.18158807,18.6696025 L0,29.8826329 L0.0803370534,29.9225076 C0.135698857,29.8297556 0.202715777,29.7430714 0.243508685,29.6433846 Z M23.7252385,1.65003312 C25.7344973,1.10999076 27.772894,0.688705707 29.7992192,0.217577259 C29.929923,0.18680438 30.0581293,0.141728613 30.1871681,0.103154159 L30.1676042,0 L21.4612321,1.21921281 C22.2791715,1.59152131 22.9089641,1.86934406 23.7252385,1.65003312 L23.7252385,1.65003312 Z" id="Shape"></path>
            </g>
        </g>
    </g>
</svg>