<svg width="58px" height="58px" viewBox="0 0 58 58" version="1.1" xmlns="http://www.w3.org/2000/svg" xmlns:xlink="http://www.w3.org/1999/xlink">
    <!-- Generator: Sketch 61 (89581) - https://sketch.com -->
    <title>vb</title>
    <desc>Created with Sketch.</desc>
    <g id="Page-1" stroke="none" stroke-width="1" fill="none" fill-rule="evenodd">
        <g id="Desktop---curve" transform="translate(-506.000000, -4049.000000)" fill-rule="nonzero">
            <g id="vb" transform="translate(506.000000, 4049.000000)">
                <path d="M58,28.9763242 L58,29 C58,31.9284336 57.5655664,34.7561602 56.7571914,37.4217813 C56.5760547,38.0206992 56.3748672,38.6125938 56.1558945,39.1937266 C52.0307578,50.1817813 41.4285391,58 29,58 C16.3453516,58 5.58340625,49.8941602 1.624,38.5912969 C1.14108203,37.2110781 0.758757813,35.7824883 0.486542969,34.3158359 C0.166863281,32.5924883 0,30.8157852 0,29 C0,26.6267578 0.285242187,24.3197852 0.82378125,22.1110273 C3.91443359,9.42080859 15.3569727,0 29,0 C41.1645938,0 51.580918,7.49151563 55.8871914,18.1114062 C56.7300039,20.1911367 57.3383242,22.391625 57.6804336,24.6784336 L57.6804336,24.6795664 C57.8898906,26.0822148 57.9988672,27.5156758 58,28.9763242 Z" id="Path" fill="#F2F2F2"></path>
                <path d="M57,25 C56.0951646,24.0936472 54.9126085,23.3155985 53.4394327,22.7278126 C51.2747595,21.8637892 48.8182328,22.1216035 46.2092738,23.0887087 C40.1547167,14.8603635 31.6927612,17.3835663 27,21.9646778 C29.0076422,19.8287997 31.8532694,17.0696053 36.5624068,15.0506263 C41.4672721,12.9468791 50.1015131,13.9322978 55.2243151,18.6429196 C56.0588231,20.6560864 56.6612616,22.7861525 57,25 Z" id="Path" fill="#572E94"></path>
                <path d="M58,29.0185317 L58,29.0416489 C58,31.9009916 57.5691205,34.6620034 56.7673588,37.2647342 C55.544043,38.4308806 53.9861355,39.4156289 52.1207137,40.0974202 C49.2315177,41.154949 46.0969395,41.2115806 43,40.6371902 C47.8204575,38.1222826 49.9782257,32.0442298 48.6961485,26.8479486 C48.348636,25.4344814 47.7464159,24.0868263 46.8740955,22.8941339 C49.4873489,21.9186767 51.9480248,21.6586359 54.1164667,22.530121 C55.5921307,23.122983 56.7766842,23.907751 57.683048,24.821931 L57.683048,24.8230371 C57.8907914,26.1927033 57.9988765,27.5923445 58,29.0185317 Z" id="Path" fill="#5C55A9"></path>
                <path d="M57,38 C56.8176723,38.5772975 56.615162,39.1478251 56.3947495,39.7079794 C51.1856959,45.0429857 41.9780894,46.3939077 35.4846459,43.5347182 C33.6700348,42.7360888 32.202177,41.8244457 31,40.8455405 L31,40.8444486 C35.9230762,43.0544923 39.9955179,42.8684293 43.0276996,41.3293697 C46.1707146,41.8964032 49.3519284,41.8404969 52.2841091,40.7965133 C54.1773983,40.1233454 55.758484,39.15121 57,38 Z" id="Path" fill="#575DAF"></path>
                <path d="M47,23.3805223 C41.3642621,25.4055021 35.0343671,30.5488391 29.3201914,35 C27.9706917,34.0533715 26.7913524,33.0918269 25.839009,32.1876437 C25.5951472,31.956114 25.3416973,31.7257908 25.0785437,31.4954676 C24.4303634,29.6515657 23.8944681,27.972619 23,26.7016735 C23.8774867,25.6977933 24.5522365,24.9047136 24.9940989,24.5093254 C25.6338463,23.936369 26.3460244,23.1535991 27.2090712,22.2631256 C27.2114971,22.2608224 27.213923,22.2585191 27.2163489,22.2562159 C32.0493413,17.6745385 40.764369,15.1509637 47,23.3805223 Z" id="Path" fill="#5155AA"></path>
                <path d="M43,40.8528672 C40.0602476,42.3674716 36.1122043,42.5504576 31.3393765,40.3756851 L31.3393765,40.3767596 C29.8712138,39.1631205 28.8108556,37.8416024 28,36.4965529 C28.6214902,36.0104526 29.2532611,35.5096317 29.8932125,35 C33.420849,37.5362317 38.1625028,39.9669482 43,40.8528672 Z" id="Path" fill="#547BC4"></path>
                <path d="M29,35.4821604 C28.3693556,35.99915 27.7467727,36.5069855 27.134321,37 C26.1462498,35.3158606 25.5327088,33.5964125 25,32 C25.2481617,32.2288529 25.4871725,32.4577058 25.7171415,32.6877575 C26.6152296,33.5862775 27.7273817,34.5415749 29,35.4821604 Z" id="Path" fill="#376DB7"></path>
                <path d="M25.7672828,30.913358 C26.3245504,32.5776633 26.9663769,34.3702368 28,36.1259999 C25.132636,38.4231253 22.473592,40.3972511 20.2063448,41.4834974 C17.584224,42.7394805 14.3466018,43.255848 11.1612876,42.8795643 C7.55796561,41.4692959 5.01573132,38.8492847 4,35.9846663 C4.70131387,36.2221159 5.45983599,36.3953745 6.27442675,36.4975119 C12.7093291,37.2988188 18.3297547,32.0884491 21.9604272,28 C23.357129,28.8845847 24.6491009,29.8876669 25.7672828,30.913358 Z" id="Path" fill="#209CDC"></path>
                <path d="M22.8454722,26 C23.7726388,27.3256154 24.3281245,29.0767823 25,31 C23.8250861,29.9672371 22.4675647,28.9572389 21,28.0666697 C21.6843287,27.3268738 22.3024398,26.6240276 22.8454722,26 Z" id="Path" fill="#3C66B4"></path>
                <path d="M23,25.8616452 C22.4917356,26.4875319 21.9131996,27.1926012 21.2726856,27.9348519 C20.6425947,27.524709 19.9903127,27.1410751 19.3240213,26.7920979 C14.5835453,24.3087484 9.07590952,23.583367 5.14338898,28.0043948 C3.05530217,30.3510683 2.67121792,33.2851848 3.60929353,36 C2.37500122,35.571955 1.32451344,34.9375762 0.481366157,34.1497669 C0.165087858,32.403963 0,30.6041083 0,28.7646624 C0,26.3604955 0.282207214,24.0234616 0.815016227,21.7859223 C2.28466801,20.2270582 4.16081923,19.1167806 6.08023175,18.531518 C8.49614069,17.7952347 11.1205109,17.8204813 13.6992661,18.6286027 C13.7003869,18.6297503 13.7027405,18.6297503 13.7039733,18.6310126 C17.000575,19.6646323 20.2198443,21.975272 22.8267306,25.6061952 C22.886355,25.6889353 22.9449707,25.7740853 23,25.8616452 Z" id="Path" fill="#69C0F1"></path>
                <g id="Group" transform="translate(1.000000, 19.000000)" fill="#0097D9">
                    <path d="M10.366396,23.9703662 C6.97093564,23.5712676 3.6360495,22.1655211 1.17687129,19.5682254 C0.691480198,18.1953803 0.30719802,16.7744225 0.0335891089,15.3156056 C0.890168317,16.0891268 1.95739109,16.7118873 3.21134653,17.1322817 C4.22619307,19.9732958 6.76621287,22.5716056 10.366396,23.9703662 Z" id="Path"></path>
                    <path d="M22.9108465,7.17814085 C22.3944851,7.79267606 21.8067327,8.48495775 21.1560149,9.21374648 C20.5158861,8.81104225 19.8532129,8.4343662 19.1763069,8.09171831 C19.1763069,3.01847887 16.7433168,1.49735211 13.4667277,0.0786478873 C16.8158465,1.09352113 20.086401,3.36225352 22.7348168,6.92732394 C22.7953911,7.00856338 22.8549406,7.09216901 22.9108465,7.17814085 Z" id="Path"></path>
                </g>
                <path d="M58,29 C57.3522812,28.4374871 56.5828166,27.9234039 55.6692788,27.48533 C52.6038616,26.0178762 50.3393452,26.2162285 48.8014158,26.8352244 C48.4578394,25.425467 47.8624402,24.0813491 47,22.891787 C49.5836548,21.9188901 52.0164603,21.6595318 54.1603417,22.5287296 C55.6192919,23.1200356 56.7904288,23.9027438 57.6865268,24.8145244 C57.8920284,26.1804853 57.9988892,27.5775561 58,29 Z" id="Path" fill="#4E2E8B"></path>
            </g>
        </g>
    </g>
</svg>